<svg version="1.1" viewBox="0.0 0.0 960.0 720.0" fill="none" stroke="none" stroke-linecap="square" stroke-miterlimit="10" xmlns:xlink="http://www.w3.org/1999/xlink" xmlns="http://www.w3.org/2000/svg"><clipPath id="p.0"><path d="m0 0l960.0 0l0 720.0l-960.0 0l0 -720.0z" clip-rule="nonzero"/></clipPath><g clip-path="url(#p.0)"><path fill="#000000" fill-opacity="0.0" d="m0 0l960.0 0l0 720.0l-960.0 0z" fill-rule="evenodd"/><path fill="#cc0000" d="m338.1706 174.53018l113.63782 0l0 116.91339l-113.63782 0z" fill-rule="evenodd"/><path fill="#cc0000" d="m568.7428 116.89239l113.63776 0l0 57.637794l-113.63776 0z" fill-rule="evenodd"/><path stroke="#cc0000" stroke-width="1.0" stroke-linejoin="round" stroke-linecap="butt" d="m568.7428 116.89239l113.63776 0l0 57.637794l-113.63776 0z" fill-rule="evenodd"/><path fill="#cc0000" d="m304.11023 350.81104l351.77954 0l0 57.637787l-351.77954 0z" fill-rule="evenodd"/><path stroke="#cc0000" stroke-width="1.0" stroke-linejoin="round" stroke-linecap="butt" d="m304.11023 350.81104l351.77954 0l0 57.637787l-351.77954 0z" fill-rule="evenodd"/><path fill="#cc0000" d="m245.93701 291.44357l58.173218 0l0 57.637787l-58.173218 0z" fill-rule="evenodd"/><path stroke="#cc0000" stroke-width="1.0" stroke-linejoin="round" stroke-linecap="butt" d="m245.93701 291.44357l58.173218 0l0 57.637787l-58.173218 0z" fill-rule="evenodd"/><path fill="#cc0000" d="m510.53543 174.53018l113.63779 0l0 116.91339l-113.63779 0z" fill-rule="evenodd"/><path fill="#cc0000" d="m281.35434 116.89239l113.63779 0l0 57.637794l-113.63779 0z" fill-rule="evenodd"/><path stroke="#cc0000" stroke-width="1.0" stroke-linejoin="round" stroke-linecap="butt" d="m281.35434 116.89239l113.63779 0l0 57.637794l-113.63779 0z" fill-rule="evenodd"/><path fill="#cc0000" d="m655.8898 291.44357l58.173218 0l0 57.637787l-58.173218 0z" fill-rule="evenodd"/><path stroke="#cc0000" stroke-width="1.0" stroke-linejoin="round" stroke-linecap="butt" d="m655.8898 291.44357l58.173218 0l0 57.637787l-58.173218 0z" fill-rule="evenodd"/><path fill="#cc0000" d="m714.063 291.44357l58.173218 0l0 57.637787l-58.173218 0z" fill-rule="evenodd"/><path stroke="#cc0000" stroke-width="1.0" stroke-linejoin="round" stroke-linecap="butt" d="m714.063 291.44357l58.173218 0l0 57.637787l-58.173218 0z" fill-rule="evenodd"/><path fill="#cc0000" d="m714.063 404.9895l58.173218 0l0 57.637787l-58.173218 0z" fill-rule="evenodd"/><path stroke="#cc0000" stroke-width="1.0" stroke-linejoin="round" stroke-linecap="butt" d="m714.063 404.9895l58.173218 0l0 57.637787l-58.173218 0z" fill-rule="evenodd"/><path fill="#cc0000" d="m714.063 349.08136l58.173218 0l0 57.637787l-58.173218 0z" fill-rule="evenodd"/><path stroke="#cc0000" stroke-width="1.0" stroke-linejoin="round" stroke-linecap="butt" d="m714.063 349.08136l58.173218 0l0 57.637787l-58.173218 0z" fill-rule="evenodd"/><path fill="#cc0000" d="m714.063 436.1706l58.173218 0l0 57.637817l-58.173218 0z" fill-rule="evenodd"/><path stroke="#cc0000" stroke-width="1.0" stroke-linejoin="round" stroke-linecap="butt" d="m714.063 436.1706l58.173218 0l0 57.637817l-58.173218 0z" fill-rule="evenodd"/><path fill="#cc0000" d="m191.40158 291.44357l58.173218 0l0 57.637787l-58.173218 0z" fill-rule="evenodd"/><path stroke="#cc0000" stroke-width="1.0" stroke-linejoin="round" stroke-linecap="butt" d="m191.40158 291.44357l58.173218 0l0 57.637787l-58.173218 0z" fill-rule="evenodd"/><path fill="#cc0000" d="m191.40158 404.9895l58.173218 0l0 57.637787l-58.173218 0z" fill-rule="evenodd"/><path stroke="#cc0000" stroke-width="1.0" stroke-linejoin="round" stroke-linecap="butt" d="m191.40158 404.9895l58.173218 0l0 57.637787l-58.173218 0z" fill-rule="evenodd"/><path fill="#cc0000" d="m191.40158 349.08136l58.173218 0l0 57.637787l-58.173218 0z" fill-rule="evenodd"/><path stroke="#cc0000" stroke-width="1.0" stroke-linejoin="round" stroke-linecap="butt" d="m191.40158 349.08136l58.173218 0l0 57.637787l-58.173218 0z" fill-rule="evenodd"/><path fill="#cc0000" d="m191.40158 436.1706l58.173218 0l0 57.637817l-58.173218 0z" fill-rule="evenodd"/><path stroke="#cc0000" stroke-width="1.0" stroke-linejoin="round" stroke-linecap="butt" d="m191.40158 436.1706l58.173218 0l0 57.637817l-58.173218 0z" fill-rule="evenodd"/><path fill="#cc0000" d="m249.5748 493.8084l58.173218 0l0 57.637756l-58.173218 0z" fill-rule="evenodd"/><path stroke="#cc0000" stroke-width="1.0" stroke-linejoin="round" stroke-linecap="butt" d="m249.5748 493.8084l58.173218 0l0 57.637756l-58.173218 0z" fill-rule="evenodd"/><path fill="#cc0000" d="m309.0866 551.44617l72.72443 0l0 57.637817l-72.72443 0z" fill-rule="evenodd"/><path stroke="#cc0000" stroke-width="1.0" stroke-linejoin="round" stroke-linecap="butt" d="m309.0866 551.44617l72.72443 0l0 57.637817l-72.72443 0z" fill-rule="evenodd"/><path fill="#cc0000" d="m655.8898 493.8084l58.173218 0l0 57.637756l-58.173218 0z" fill-rule="evenodd"/><path stroke="#cc0000" stroke-width="1.0" stroke-linejoin="round" stroke-linecap="butt" d="m655.8898 493.8084l58.173218 0l0 57.637756l-58.173218 0z" fill-rule="evenodd"/><path fill="#cc0000" d="m586.3648 551.44617l68.28351 0l0 57.637817l-68.28351 0z" fill-rule="evenodd"/><path stroke="#cc0000" stroke-width="1.0" stroke-linejoin="round" stroke-linecap="butt" d="m586.3648 551.44617l68.28351 0l0 57.637817l-68.28351 0z" fill-rule="evenodd"/><path fill="#cc0000" d="m364.77167 609.084l230.45667 0l0 57.637817l-230.45667 0z" fill-rule="evenodd"/><path stroke="#cc0000" stroke-width="1.0" stroke-linejoin="round" stroke-linecap="butt" d="m364.77167 609.084l230.45667 0l0 57.637817l-230.45667 0z" fill-rule="evenodd"/><path fill="#cc0000" d="m368.59842 408.44882l58.17325 0l0 200.62991l-58.17325 0z" fill-rule="evenodd"/><path stroke="#cc0000" stroke-width="1.0" stroke-linejoin="round" stroke-linecap="butt" d="m368.59842 408.44882l58.17325 0l0 200.62991l-58.17325 0z" fill-rule="evenodd"/><path fill="#cc0000" d="m537.06036 408.44882l58.173218 0l0 200.62991l-58.173218 0z" fill-rule="evenodd"/><path stroke="#cc0000" stroke-width="1.0" stroke-linejoin="round" stroke-linecap="butt" d="m537.06036 408.44882l58.173218 0l0 200.62991l-58.173218 0z" fill-rule="evenodd"/></g></svg>